<svg width="4317" height="1000" viewBox="0 0 4317 1000" fill="none" xmlns="http://www.w3.org/2000/svg">

<mask id="mask0_89_2" style="mask-type:luminance" maskUnits="userSpaceOnUse" x="3411" y="94" width="811" height="812">
<path d="M3816.55 94.5C4040.2 94.5 4221.5 276.006 4221.5 499.906C4221.5 723.806 4040.2 905.312 3816.55 905.312C3592.91 905.312 3411.6 723.806 3411.6 499.906C3411.6 276.006 3592.91 94.5002 3816.55 94.5Z" fill="white" stroke="white"/>
</mask>
<g mask="url(#mask0_89_2)">
<path d="M3887.64 128.708C3892.87 128.604 3898.09 129.395 3903.1 131.114V131.115L3903.11 131.117C3909.29 133.111 3915.09 136.482 3919.94 140.952L3920.14 141.138L3920.41 141.067C3923.72 140.176 3927.18 139.8 3930.59 140.005L3930.62 140.006H3930.64C3947.49 139.493 3961.89 152.262 3963.78 168.834L3963.82 169.208L3964.19 169.27C3979.1 171.798 3990.67 184.513 3991.29 200.094L3991.31 200.839V202.445C3991.58 211.074 3988.51 219.29 3982.62 225.625C3976.71 231.994 3968.67 235.691 3959.98 235.999H3846.56C3845.93 236.034 3845.32 236.068 3844.71 236.068H3844.65C3836.89 236.068 3829.26 233.194 3823.24 227.817V227.816L3822.64 227.267C3816.51 221.531 3812.9 213.783 3812.4 205.389V205.384C3812.33 204.399 3812.33 203.414 3812.4 202.464L3812.4 202.439L3812.4 202.414C3811.85 185.226 3824.81 170.606 3841.74 168.963L3842.13 168.924L3842.19 168.534C3845.31 146.042 3864.52 128.88 3887.64 128.708H3887.64ZM3982.83 200.926C3982.62 187.897 3972.05 177.426 3959.14 177.177H3958.2C3955.91 177.177 3954.04 175.319 3954.01 173.019C3954.01 171.86 3954.45 170.803 3955.19 170.028L3955.35 169.857L3955.32 169.623C3953.91 157.588 3943.62 148.323 3931.35 148.323H3930.12C3926.82 148.113 3923.46 148.61 3920.38 149.78C3918.89 150.334 3917.24 150.014 3916.07 148.97L3915.84 148.753C3911.58 144.279 3906.2 140.898 3900.29 138.996H3900.29C3896.4 137.643 3892.44 137.002 3888.43 136.985L3887.63 136.99C3867.43 137.133 3850.97 153.019 3850.01 173.13C3849.89 175.424 3847.94 177.173 3845.66 177.142H3844.78L3844.78 177.177H3843.97C3830.88 177.667 3820.57 188.579 3820.73 201.617L3820.74 202.24V204.892C3821.52 218.197 3833.03 228.418 3846.22 227.612H3959.57C3966.02 227.363 3971.98 224.629 3976.37 219.909C3980.77 215.191 3983.04 209.019 3982.83 202.568V200.926Z" fill="#182443" stroke="#182443"/>
<mask id="path-3-inside-1_89_2" fill="white">
<path d="M4189.78 928.27H4050.39C4049.17 928.27 4047.99 927.784 4047.13 926.949L3850.17 735.538C3848.81 734.217 3848.36 732.166 3849.09 730.393C3849.82 728.62 3851.52 727.473 3853.43 727.473H3935.21C3936.21 727.473 3937.22 727.82 3938.02 728.411L4192.59 919.823C4194.19 921.039 4194.85 923.16 4194.22 925.072C4193.6 926.984 4191.79 928.27 4189.78 928.27ZM4052.3 918.884H4175.71L3933.64 736.859H3864.99L4052.3 918.884ZM3952.71 928.27H3813.11C3811.38 928.27 3809.75 927.297 3808.95 925.732L3710.22 734.321C3709.46 732.861 3709.53 731.123 3710.4 729.732C3711.27 728.342 3712.76 727.473 3714.39 727.473H3796.27C3797.7 727.473 3799.02 728.098 3799.88 729.211L3956.32 920.622C3957.47 922.013 3957.71 923.96 3956.91 925.593C3956.11 927.227 3954.48 928.27 3952.67 928.27H3952.71ZM3815.96 918.884H3942.81L3794.05 736.859H3722.07L3815.93 918.884H3815.96ZM3714.84 928.27H3575.35C3572.75 928.27 3570.67 926.184 3570.67 923.577V732.166C3570.67 729.558 3572.75 727.473 3575.35 727.473H3657.23C3659.28 727.473 3661.12 728.828 3661.71 730.81C3680.85 794.115 3700.22 858.533 3719.32 922.256C3719.74 923.681 3719.46 925.211 3718.59 926.393C3717.73 927.575 3716.3 928.27 3714.84 928.27ZM3580.04 918.884H3708.56C3690.4 858.255 3671.99 797.07 3653.8 736.859H3580.08V918.884H3580.04ZM3904.23 672.962H3565.01C3562.4 672.962 3560.32 670.876 3560.32 668.269C3560.32 665.662 3562.4 663.576 3565.01 663.576H3904.23C3906.84 663.576 3908.92 665.662 3908.92 668.269C3908.92 670.876 3906.84 672.962 3904.23 672.962ZM3830.62 642.3C3828.01 642.3 3825.93 640.214 3825.93 637.607V401.072H3753.91C3751.3 401.072 3749.22 398.986 3749.22 396.379C3749.22 393.771 3751.3 391.685 3753.91 391.685H3794.95V335.368C3794.95 332.76 3797.04 330.674 3799.64 330.674H3812V311.728C3812 309.121 3814.09 307.035 3816.69 307.035H3826.87V273.661C3826.87 271.054 3828.95 268.968 3831.55 268.968C3834.16 268.968 3836.24 271.054 3836.24 273.661V307.035H3874.3C3876.9 307.035 3878.99 309.121 3878.99 311.728V330.674H3925.35C3927.95 330.674 3930.03 332.76 3930.03 335.368V539.086C3930.03 541.693 3927.95 543.779 3925.35 543.779C3922.74 543.779 3920.66 541.693 3920.66 539.086V340.061H3849.54C3846.94 340.061 3844.85 337.975 3844.85 335.368C3844.85 332.76 3846.94 330.674 3849.54 330.674H3869.61V316.421H3821.38V335.368C3821.38 337.975 3819.3 340.061 3816.69 340.061H3804.33V391.685H3830.62C3833.22 391.685 3835.3 393.771 3835.3 396.379V637.607C3835.3 640.214 3833.22 642.3 3830.62 642.3ZM3743.18 641.953C3740.57 641.953 3738.49 639.867 3738.49 637.26V564.081C3738.49 561.474 3740.57 559.388 3743.18 559.388C3745.78 559.388 3747.87 561.474 3747.87 564.081V637.26C3747.87 639.867 3745.78 641.953 3743.18 641.953ZM3575.35 640.214C3572.75 640.214 3570.67 638.129 3570.67 635.521V594.708C3570.67 592.101 3572.75 590.015 3575.35 590.015C3577.96 590.015 3580.04 592.101 3580.04 594.708V635.521C3580.04 638.129 3577.96 640.214 3575.35 640.214ZM4024.59 549.341C4021.98 549.341 4019.9 547.255 4019.9 544.648V495.874C4019.9 493.266 4021.98 491.181 4024.59 491.181C4027.19 491.181 4029.28 493.266 4029.28 495.874V544.648C4029.28 547.255 4027.19 549.341 4024.59 549.341ZM4024.59 460.658C4021.98 460.658 4019.9 458.572 4019.9 455.964V418.906C4019.9 416.299 4021.98 414.213 4024.59 414.213C4027.19 414.213 4029.28 416.299 4029.28 418.906V455.964C4029.28 458.572 4027.19 460.658 4024.59 460.658ZM4010.77 407.399H3942.81C3940.21 407.399 3938.12 405.313 3938.12 402.706C3938.12 400.098 3940.21 398.013 3942.81 398.013H4010.77C4013.37 398.013 4015.46 400.098 4015.46 402.706C4015.46 405.313 4013.37 407.399 4010.77 407.399Z"/>
</mask>
<path d="M4189.78 928.27H4050.39C4049.17 928.27 4047.99 927.784 4047.13 926.949L3850.17 735.538C3848.81 734.217 3848.36 732.166 3849.09 730.393C3849.82 728.62 3851.52 727.473 3853.43 727.473H3935.21C3936.21 727.473 3937.22 727.82 3938.02 728.411L4192.59 919.823C4194.19 921.039 4194.85 923.16 4194.22 925.072C4193.6 926.984 4191.79 928.27 4189.78 928.27ZM4052.3 918.884H4175.71L3933.64 736.859H3864.99L4052.3 918.884ZM3952.71 928.27H3813.11C3811.38 928.27 3809.75 927.297 3808.95 925.732L3710.22 734.321C3709.46 732.861 3709.53 731.123 3710.4 729.732C3711.27 728.342 3712.76 727.473 3714.39 727.473H3796.27C3797.7 727.473 3799.02 728.098 3799.88 729.211L3956.32 920.622C3957.47 922.013 3957.71 923.96 3956.91 925.593C3956.11 927.227 3954.48 928.27 3952.67 928.27H3952.71ZM3815.96 918.884H3942.81L3794.05 736.859H3722.07L3815.93 918.884H3815.96ZM3714.84 928.27H3575.35C3572.75 928.27 3570.67 926.184 3570.67 923.577V732.166C3570.67 729.558 3572.75 727.473 3575.35 727.473H3657.23C3659.28 727.473 3661.12 728.828 3661.71 730.81C3680.85 794.115 3700.22 858.533 3719.32 922.256C3719.74 923.681 3719.46 925.211 3718.59 926.393C3717.73 927.575 3716.3 928.27 3714.84 928.27ZM3580.04 918.884H3708.56C3690.4 858.255 3671.99 797.07 3653.8 736.859H3580.08V918.884H3580.04ZM3904.23 672.962H3565.01C3562.4 672.962 3560.32 670.876 3560.32 668.269C3560.32 665.662 3562.4 663.576 3565.01 663.576H3904.23C3906.84 663.576 3908.92 665.662 3908.92 668.269C3908.92 670.876 3906.84 672.962 3904.23 672.962ZM3830.62 642.3C3828.01 642.3 3825.93 640.214 3825.93 637.607V401.072H3753.91C3751.3 401.072 3749.22 398.986 3749.22 396.379C3749.22 393.771 3751.3 391.685 3753.91 391.685H3794.95V335.368C3794.95 332.76 3797.04 330.674 3799.64 330.674H3812V311.728C3812 309.121 3814.09 307.035 3816.69 307.035H3826.87V273.661C3826.87 271.054 3828.95 268.968 3831.55 268.968C3834.16 268.968 3836.24 271.054 3836.24 273.661V307.035H3874.3C3876.9 307.035 3878.99 309.121 3878.99 311.728V330.674H3925.35C3927.95 330.674 3930.03 332.76 3930.03 335.368V539.086C3930.03 541.693 3927.95 543.779 3925.35 543.779C3922.74 543.779 3920.66 541.693 3920.66 539.086V340.061H3849.54C3846.94 340.061 3844.85 337.975 3844.85 335.368C3844.85 332.76 3846.94 330.674 3849.54 330.674H3869.61V316.421H3821.38V335.368C3821.38 337.975 3819.3 340.061 3816.69 340.061H3804.33V391.685H3830.62C3833.22 391.685 3835.3 393.771 3835.3 396.379V637.607C3835.3 640.214 3833.22 642.3 3830.62 642.3ZM3743.18 641.953C3740.57 641.953 3738.49 639.867 3738.49 637.26V564.081C3738.49 561.474 3740.57 559.388 3743.18 559.388C3745.78 559.388 3747.87 561.474 3747.87 564.081V637.26C3747.87 639.867 3745.78 641.953 3743.18 641.953ZM3575.35 640.214C3572.75 640.214 3570.67 638.129 3570.67 635.521V594.708C3570.67 592.101 3572.75 590.015 3575.35 590.015C3577.96 590.015 3580.04 592.101 3580.04 594.708V635.521C3580.04 638.129 3577.96 640.214 3575.35 640.214ZM4024.59 549.341C4021.98 549.341 4019.9 547.255 4019.9 544.648V495.874C4019.9 493.266 4021.98 491.181 4024.59 491.181C4027.19 491.181 4029.28 493.266 4029.28 495.874V544.648C4029.28 547.255 4027.19 549.341 4024.59 549.341ZM4024.59 460.658C4021.98 460.658 4019.9 458.572 4019.9 455.964V418.906C4019.9 416.299 4021.98 414.213 4024.59 414.213C4027.19 414.213 4029.28 416.299 4029.28 418.906V455.964C4029.28 458.572 4027.19 460.658 4024.59 460.658ZM4010.77 407.399H3942.81C3940.21 407.399 3938.12 405.313 3938.12 402.706C3938.12 400.098 3940.21 398.013 3942.81 398.013H4010.77C4013.37 398.013 4015.46 400.098 4015.46 402.706C4015.46 405.313 4013.37 407.399 4010.77 407.399Z" fill="#182443" stroke="#182443" stroke-width="2" mask="url(#path-3-inside-1_89_2)"/>
<path d="M3636.19 601.709C3638.52 601.709 3640.38 603.57 3640.38 605.902V669.903C3640.38 672.235 3638.52 674.095 3636.19 674.095C3633.86 674.095 3632 672.234 3632 669.903V605.902C3632 603.571 3633.86 601.709 3636.19 601.709Z" fill="#182443" stroke="#182443"/>
<path d="M3636.19 413.392C3638.52 413.392 3640.38 415.253 3640.38 417.585V605.902C3640.38 608.234 3638.52 610.096 3636.19 610.096C3633.86 610.096 3632 608.234 3632 605.902V417.585L3632.01 417.367C3632.12 415.138 3633.94 413.392 3636.19 413.392Z" fill="#182443" stroke="#182443"/>
<path d="M3621.68 282.561C3649.62 276.234 3679.47 283.392 3701.54 301.683L3701.55 301.693L3701.56 301.702C3728.14 321.133 3742.21 341.593 3743.37 362.338L3743.38 362.369C3744.78 374.006 3749.54 385.22 3757.17 394.506L3757.18 394.524L3757.2 394.542C3757.27 394.612 3757.34 394.708 3757.39 394.794L3757.4 394.823L3757.42 394.849L3759.19 397.491L3759.19 397.492C3761.41 400.796 3763.7 404.191 3765.91 407.932L3765.91 407.934C3783.6 437.351 3782.28 475.434 3761 539.658L3761 539.673L3761 539.687C3752.14 573.032 3717.6 598.804 3670.55 606.913L3668.3 607.285C3666 607.625 3663.87 606.068 3663.53 603.811C3663.19 601.536 3664.71 599.362 3667 598.99C3711.72 591.883 3744.73 568.272 3753 537.241C3773.06 476.603 3775.06 440.57 3759.5 413.532L3758.75 412.251C3756.62 408.692 3754.39 405.38 3752.24 402.183V402.182L3750.57 399.714L3750.56 399.695L3750.55 399.679L3749.75 398.688C3741.66 388.397 3736.57 376.138 3735.03 363.101C3733.97 344.562 3720.91 326.267 3696.39 308.305C3676.04 291.428 3648.81 284.962 3623.31 290.796C3623.23 290.812 3623.14 290.829 3623.05 290.847C3622.96 290.863 3622.86 290.88 3622.77 290.897C3621.24 291.064 3617.88 291.762 3613.63 292.739C3609.33 293.726 3604.09 295.006 3598.82 296.334C3588.29 298.986 3577.61 301.838 3574.1 302.939C3543.68 311.947 3527.63 341.895 3516 369.765C3509.17 386.091 3510.54 400.389 3512.22 412.998L3512.56 415.497C3514.27 428.104 3515.67 438.699 3508.41 447.12C3501.51 455.085 3499.14 468.211 3499.01 481.611C3498.9 494.201 3500.78 507.147 3502.88 516.546L3503.3 518.378C3507.8 537.341 3525.19 558.187 3549.07 574.277C3572.96 590.378 3603.43 601.778 3634.21 601.778C3636.54 601.778 3638.4 603.64 3638.4 605.972C3638.4 608.134 3636.8 609.89 3634.71 610.135V610.096H3634.21C3607.57 610.096 3575.73 600.067 3549.08 583.796C3522.41 567.518 3501.03 545.058 3495.14 520.266V520.266L3494.91 519.289C3493.66 513.864 3490.94 500.492 3490.59 485.697C3490.2 469.888 3492.52 452.595 3502.05 441.586L3502.05 441.585C3504.47 438.754 3505.39 435.254 3505.51 431.106C3505.64 426.972 3504.99 422.129 3504.25 416.58V416.579C3502.41 402.884 3500.14 385.972 3508.27 366.501C3520.78 336.6 3538.03 304.869 3571.64 294.894L3571.65 294.891C3574.46 293.993 3584.97 291.155 3595.79 288.417C3606.61 285.676 3617.68 283.052 3621.63 282.57L3621.66 282.567L3621.68 282.561Z" fill="#182443" stroke="#182443"/>
<path d="M3676.14 451.974C3678.13 450.763 3680.7 451.386 3681.91 453.338V453.339C3683.12 455.33 3682.5 457.908 3680.55 459.119L3638.39 485.053L3638.39 485.058C3637.71 485.487 3636.98 485.674 3636.19 485.674C3634.79 485.674 3633.4 484.957 3632.62 483.69C3631.41 481.698 3632.04 479.119 3633.99 477.908L3633.99 477.907L3676.14 451.975L3676.14 451.974Z" fill="#182443" stroke="#182443"/>
<path d="M3558 468.287C3559.21 466.334 3561.78 465.712 3563.77 466.922V466.923L3638.39 512.951C3640.35 514.161 3640.97 516.741 3639.76 518.732C3638.99 519.999 3637.59 520.716 3636.19 520.716C3635.53 520.716 3634.86 520.573 3634.25 520.25L3633.99 520.1L3633.99 520.096L3559.36 474.068H3559.36C3557.41 472.857 3556.79 470.277 3558 468.287Z" fill="#182443" stroke="#182443"/>
<path d="M3710.24 510.204C3712.23 508.992 3714.81 509.617 3716.02 511.572C3717.19 513.465 3716.64 515.976 3714.83 517.232L3714.65 517.349L3638.39 564.385L3638.39 564.389C3637.71 564.818 3636.94 565.006 3636.19 565.006C3634.79 565.006 3633.4 564.289 3632.62 563.021L3632.62 563.018C3631.41 561.064 3632.03 558.451 3633.99 557.24L3633.99 557.241L3710.24 510.205L3710.24 510.204Z" fill="#182443" stroke="#182443"/>
<path d="M3425.26 433.98C3438.37 421.995 3456.43 417.415 3473.66 421.685L3473.68 421.689L3473.69 421.692C3476.17 422.14 3485.73 424.6 3493.45 426.654L3493.45 426.655C3495.68 427.245 3497.01 429.541 3496.39 431.773C3495.77 434.02 3493.47 435.346 3491.28 434.728L3491.28 434.727L3488.02 433.855C3480.53 431.869 3473.8 430.204 3471.95 429.855C3457.07 426.167 3441.76 430.105 3430.7 440.336L3430.68 440.349C3430.54 440.497 3430.39 440.616 3430.2 440.739L3430.2 440.741C3418.79 448.507 3411.45 460.843 3410.12 474.584L3410.12 474.6L3410.12 474.616C3409.84 483.034 3407.03 491.423 3402.01 498.541L3402 498.56L3401.99 498.582C3400.53 501.155 3399.1 503.699 3397.67 506.418L3397.67 506.427C3389.23 523.318 3391.67 546.097 3405.83 584.776H3405.84C3408.75 594.038 3417.42 603.881 3429.31 611.524C3441.21 619.176 3456.39 624.667 3472.41 625.175H3472.42C3474.74 625.237 3476.54 627.19 3476.48 629.493C3476.42 631.759 3474.56 633.561 3472.29 633.561H3471.79V633.58C3455.55 632.989 3439 627.464 3425.56 619.109C3412.01 610.685 3401.67 599.427 3397.94 587.536L3397.93 587.524L3397.93 587.514L3397.23 585.596C3382.8 545.57 3380.83 521.468 3390.23 502.641C3391.79 499.658 3393.28 496.987 3394.8 494.313L3394.81 494.302L3394.82 494.289C3394.87 494.184 3394.99 494.005 3395.06 493.891C3399.21 488.049 3401.53 481.222 3401.78 474.079C3403.36 457.681 3411.9 443.218 3425.21 434.022L3425.24 434.003L3425.26 433.98Z" fill="#182443" stroke="#182443"/>
<path d="M3538.66 590.415C3539.87 588.46 3542.44 587.838 3544.43 589.051C3546.41 590.258 3547.01 592.833 3545.79 594.828C3533.68 614.526 3513.76 628.418 3491.08 632.945L3491.07 632.947C3490.79 633.009 3490.52 633.04 3490.24 633.04C3488.29 633.04 3486.55 631.675 3486.15 629.652L3486.15 629.649C3485.68 627.388 3487.17 625.18 3489.44 624.713L3489.44 624.712C3509.82 620.617 3527.75 608.124 3538.66 590.416L3538.66 590.415Z" fill="#182443" stroke="#182443"/>
<path d="M3472.39 596.077C3474.72 596.077 3476.58 597.939 3476.58 600.271V670.251C3476.58 672.582 3474.72 674.443 3472.39 674.443C3470.07 674.443 3468.21 672.582 3468.21 670.251V600.271C3468.21 597.939 3470.07 596.077 3472.39 596.077Z" fill="#182443" stroke="#182443"/>
<mask id="path-13-inside-2_89_2" fill="white">
<path d="M4287.67 672.962H4282.25C4281.28 672.962 4280.41 672.684 4279.64 672.163C4278.91 672.649 4278.01 672.962 4277.04 672.962H4265.51C4264.82 672.962 4264.16 672.823 4263.57 672.545C4262.98 672.823 4262.32 672.962 4261.62 672.962H3902.36C3901.18 672.962 3900.07 672.51 3899.23 671.78C3898.4 672.51 3897.32 672.962 3896.11 672.962H3884.58C3883.61 672.962 3882.67 672.649 3881.94 672.128C3881.18 672.649 3880.27 672.962 3879.3 672.962H3873.88C3871.28 672.962 3869.2 670.876 3869.2 668.269C3869.2 665.662 3871.28 663.576 3873.88 663.576H3879.3C3880.27 663.576 3881.21 663.889 3881.94 664.41C3882.7 663.889 3883.61 663.576 3884.58 663.576H3896.11C3897.29 663.576 3898.4 664.028 3899.23 664.758C3900.07 664.028 3901.14 663.576 3902.36 663.576H3933.71C3932.33 663.089 3930.97 662.568 3929.62 661.977C3912.5 654.676 3899.23 641.153 3892.29 623.875C3885.34 606.597 3885.52 587.651 3892.81 570.512C3903.75 544.752 3928.89 528.1 3956.88 528.065C3962.19 528.065 3967.54 528.656 3972.75 529.803C3975.28 530.36 3976.88 532.863 3976.32 535.4C3975.77 537.938 3973.27 539.537 3970.73 538.981C3966.18 537.973 3961.53 537.486 3956.88 537.486C3932.67 537.486 3910.9 551.913 3901.42 574.197C3895.1 589.041 3894.96 605.415 3900.97 620.399C3906.98 635.347 3918.47 647.063 3933.26 653.355C3963.86 666.392 3999.31 652.069 4012.33 621.442C4024.66 592.448 4012.47 559.075 3985.21 544.578L3961.74 599.575C3960.73 601.974 3957.99 603.051 3955.59 602.043C3953.2 601.035 3952.12 598.254 3953.13 595.89L3977.64 538.46C3977.57 537.695 3977.64 536.895 3977.99 536.165C3978.3 535.4 3978.82 534.775 3979.41 534.288L3983.61 524.45C3978.13 525.145 3972.4 521.981 3968.54 515.828C3963.96 508.562 3964.55 500.74 3970 496.777C3970.14 496.673 3970.28 496.604 3970.42 496.499L4007.05 475.432L4031.53 435.384C4031.67 435.141 4031.88 434.897 4032.06 434.654C4048.38 416.75 4076.23 415.429 4094.18 431.699C4110.6 446.161 4123.59 463.647 4132.72 483.602C4138.35 498.029 4139.04 516.106 4124.39 524.241L4116.19 529.108L4173.07 593.248C4173.84 594.117 4174.25 595.229 4174.25 596.377V598.115C4174.25 600.514 4172.48 602.495 4170.09 602.773L4111.19 609.518C4113.52 621.198 4119.25 631.94 4127.9 640.527C4139.32 651.86 4154.56 658.187 4170.61 658.014C4186.72 657.944 4201.83 651.582 4213.15 640.145C4224.47 628.707 4230.68 613.515 4230.61 597.385C4230.54 581.254 4224.19 566.132 4212.76 554.799C4201.41 543.535 4186.34 537.312 4170.36 537.312C4170.26 537.312 4170.16 537.312 4170.02 537.312C4159.11 537.312 4148.38 540.233 4139.01 545.76C4136.79 547.081 4133.9 546.351 4132.58 544.091C4131.26 541.866 4131.99 538.981 4134.25 537.66C4145.08 531.263 4157.41 527.891 4169.98 527.891C4170.12 527.891 4170.23 527.891 4170.36 527.891C4188.8 527.891 4206.2 535.053 4219.36 548.089C4232.59 561.195 4239.92 578.682 4239.99 597.315C4240.09 615.949 4232.9 633.47 4219.81 646.715C4212.21 654.398 4203.18 660.065 4193.25 663.506H4261.59C4262.28 663.506 4262.94 663.645 4263.53 663.923C4264.12 663.645 4264.78 663.506 4265.48 663.506H4277C4277.98 663.506 4278.85 663.784 4279.61 664.306C4280.34 663.819 4281.24 663.506 4282.21 663.506H4287.63C4290.23 663.506 4292.32 665.592 4292.32 668.199C4292.32 670.807 4290.23 672.893 4287.63 672.893L4287.67 672.962ZM3979.93 663.576H4147.41C4137.72 660.204 4128.83 654.676 4121.33 647.237C4111.16 637.155 4104.46 624.466 4101.89 610.63L4081.16 612.994L4081.3 615.149C4081.61 617.305 4081.3 621.129 4076.89 624.64C4070.81 629.403 4059.42 631.454 4053.45 628.812C4050.42 627.491 4048.58 625.022 4048.34 621.998L4043.34 588.381L3995.46 520.556L3988.93 535.852C4020.94 552.435 4035.32 591.301 4020.98 625.057C4013.03 643.795 3997.78 657.249 3979.93 663.541V663.576ZM4057.65 620.92V620.99C4057.65 620.99 4057.65 620.955 4057.65 620.92ZM4057.58 620.399C4059 620.816 4062.72 620.851 4066.85 619.425C4070.29 618.243 4071.85 616.783 4072.02 616.262L4068.03 549.758C4067.93 548.02 4068.79 546.351 4070.32 545.447L4098.97 528.482C4099.77 527.266 4101.09 526.466 4102.55 526.362L4119.74 516.176C4131.92 509.397 4125.5 490.937 4124.08 487.322C4115.57 468.827 4103.38 452.384 4087.89 438.756C4073.83 426.032 4052.13 426.971 4039.24 440.738L4014.38 481.412C4013.96 482.072 4013.41 482.628 4012.71 483.046L3975.35 504.565C3974.2 505.607 3975 508.597 3976.43 510.857C3977.95 513.256 3981.08 516.106 3983.37 514.855L4022.78 492.189L4049.73 463.751C4051.5 461.874 4054.42 461.805 4056.33 463.543L4085.71 490.763C4086.4 491.424 4086.89 492.258 4087.09 493.197L4088.48 499.524C4088.48 499.524 4088.48 499.558 4088.48 499.593L4088.59 500.184C4088.93 501.992 4088.24 503.834 4086.75 504.912L4052.2 529.838C4051.95 530.012 4051.71 530.151 4051.43 530.29C4046.71 532.515 4044.35 537.938 4045.95 542.944C4046.01 543.188 4046.08 543.431 4046.12 543.709L4057.54 620.468L4057.58 620.399ZM4106.68 534.844L4086.4 602.982L4100.81 601.313C4100.74 600.235 4100.71 599.123 4100.71 598.011C4100.6 579.481 4107.93 561.682 4120.92 548.576L4108 534.01L4106.64 534.809L4106.68 534.844ZM4127.17 555.633C4116.19 566.931 4110.01 582.158 4110.08 597.976C4110.08 598.741 4110.08 599.505 4110.15 600.235L4161.51 594.36L4127.17 555.633ZM4077.58 552.087L4079.94 591.823L4094.8 541.901L4077.58 552.122V552.087ZM4003.23 515.376L4040.29 567.835L4036.95 545.378C4034.17 536.165 4038.48 526.223 4047.06 521.947L4048.9 520.626L4003.23 515.411V515.376ZM4015.28 507.311L4060.22 512.456L4078.8 499.072L4078.27 496.604L4053.38 473.555L4029.14 499.141C4028.83 499.489 4028.48 499.767 4028.06 499.976L4015.28 507.311ZM4181.23 484.784H4156.58C4153.97 484.784 4151.89 482.698 4151.89 480.091C4151.89 477.483 4153.97 475.397 4156.58 475.397H4181.23C4183.84 475.397 4185.92 477.483 4185.92 480.091C4185.92 482.698 4183.84 484.784 4181.23 484.784ZM4220.3 465.385H4214.78C4212.66 465.385 4210.85 463.96 4210.3 462.048C4209.71 463.995 4207.94 465.385 4205.82 465.385H4195.23C4193.56 465.385 4192.07 464.516 4191.27 463.195C4190.44 464.516 4188.98 465.385 4187.31 465.385H4146.2C4143.59 465.385 4141.51 463.3 4141.51 460.692C4141.51 458.085 4143.59 455.999 4146.2 455.999H4187.31C4188.98 455.999 4190.47 456.868 4191.27 458.189C4192.1 456.868 4193.56 455.999 4195.23 455.999H4205.82C4207.94 455.999 4209.74 457.424 4210.3 459.336C4210.89 457.39 4212.66 455.999 4214.78 455.999H4220.3C4222.9 455.999 4224.99 458.085 4224.99 460.692C4224.99 463.3 4222.9 465.385 4220.3 465.385ZM4185.61 442.337H4177.66C4175.71 442.337 4174.05 441.155 4173.35 439.451C4172.62 441.12 4170.99 442.337 4169.05 442.337H4128.38C4125.78 442.337 4123.69 440.251 4123.69 437.644C4123.69 435.036 4125.78 432.95 4128.38 432.95H4169.05C4170.99 432.95 4172.66 434.132 4173.35 435.836C4174.08 434.167 4175.71 432.95 4177.66 432.95H4185.61C4188.21 432.95 4190.3 435.036 4190.3 437.644C4190.3 440.251 4188.21 442.337 4185.61 442.337ZM4033.17 425.754C4025.04 425.754 4017.09 421.756 4012.37 414.491C4007.64 406.599 4004.21 398.221 4002.05 389.426C4001.88 389.078 4001.74 388.696 4001.67 388.313C4000.98 384.837 4000.98 381.291 4001.67 377.814C4003.27 370.653 4009.69 363.909 4018.79 359.668C4028.1 355.357 4038.2 354.592 4045.95 357.443C4051.47 353.514 4058.97 349.551 4067.06 351.463C4073.93 353.062 4079.77 358.729 4084.42 368.289L4086.19 371.939C4095.15 390.434 4096.68 392.833 4103.8 393.702C4105.5 393.91 4106.96 395.023 4107.62 396.622C4108.28 398.221 4107.96 400.029 4106.85 401.35C4105.08 403.505 4099.63 410.006 4091.16 409.206C4081.89 408.303 4072.51 398.986 4061.78 380.039C4063.17 386.749 4063.62 393.597 4063.13 400.515C4063.13 400.828 4063.06 401.141 4062.96 401.419C4060.36 410.806 4053.83 418.558 4045.01 422.695C4041.26 424.781 4037.16 425.754 4033.13 425.754H4033.17ZM4012.64 392.415C4014.52 398.395 4017.12 404.096 4020.32 409.519C4024.62 416.159 4033.58 418.349 4040.6 414.421C4040.7 414.352 4040.81 414.317 4040.91 414.247C4047.16 411.362 4051.81 405.939 4053.79 399.368C4054.38 390.538 4053.17 381.847 4050.22 373.504C4049.63 371.974 4048.72 370.549 4047.54 369.262C4046.67 368.359 4045.7 367.629 4044.59 367.072C4044.49 367.038 4044.38 366.968 4044.28 366.933C4038.72 364.152 4030.35 364.674 4022.71 368.185C4017.64 370.514 4013.76 373.782 4011.88 377.119C4014.52 384.976 4016.95 386.992 4035.74 381.152C4038.2 380.387 4040.84 381.778 4041.6 384.246C4042.37 386.714 4040.98 389.356 4038.51 390.121C4028.03 393.389 4019.24 395.509 4012.61 392.45L4012.64 392.415ZM4057.37 361.614C4063.48 363.457 4066.71 369.506 4068 371.87C4080.7 395.37 4088.55 399.473 4092.09 399.82C4092.44 399.855 4092.82 399.855 4093.21 399.82C4087.48 396.066 4083.97 388.765 4077.79 375.972L4076.02 372.322C4072.68 365.438 4068.93 361.475 4064.94 360.537C4062.75 360.015 4060.25 360.363 4057.37 361.58V361.614Z"/>
</mask>
<path d="M4287.67 672.962H4282.25C4281.28 672.962 4280.41 672.684 4279.64 672.163C4278.91 672.649 4278.01 672.962 4277.04 672.962H4265.51C4264.82 672.962 4264.16 672.823 4263.57 672.545C4262.98 672.823 4262.32 672.962 4261.62 672.962H3902.36C3901.18 672.962 3900.07 672.51 3899.23 671.78C3898.4 672.51 3897.32 672.962 3896.11 672.962H3884.58C3883.61 672.962 3882.67 672.649 3881.94 672.128C3881.18 672.649 3880.27 672.962 3879.3 672.962H3873.88C3871.28 672.962 3869.2 670.876 3869.2 668.269C3869.2 665.662 3871.28 663.576 3873.88 663.576H3879.3C3880.27 663.576 3881.21 663.889 3881.94 664.41C3882.7 663.889 3883.61 663.576 3884.58 663.576H3896.11C3897.29 663.576 3898.4 664.028 3899.23 664.758C3900.07 664.028 3901.14 663.576 3902.36 663.576H3933.71C3932.33 663.089 3930.97 662.568 3929.62 661.977C3912.5 654.676 3899.23 641.153 3892.29 623.875C3885.34 606.597 3885.52 587.651 3892.81 570.512C3903.75 544.752 3928.89 528.1 3956.88 528.065C3962.19 528.065 3967.54 528.656 3972.75 529.803C3975.28 530.36 3976.88 532.863 3976.32 535.4C3975.77 537.938 3973.27 539.537 3970.73 538.981C3966.18 537.973 3961.53 537.486 3956.88 537.486C3932.67 537.486 3910.9 551.913 3901.42 574.197C3895.1 589.041 3894.96 605.415 3900.97 620.399C3906.98 635.347 3918.47 647.063 3933.26 653.355C3963.86 666.392 3999.31 652.069 4012.33 621.442C4024.66 592.448 4012.47 559.075 3985.21 544.578L3961.74 599.575C3960.73 601.974 3957.99 603.051 3955.59 602.043C3953.2 601.035 3952.12 598.254 3953.13 595.89L3977.64 538.46C3977.57 537.695 3977.64 536.895 3977.99 536.165C3978.3 535.4 3978.82 534.775 3979.41 534.288L3983.61 524.45C3978.13 525.145 3972.4 521.981 3968.54 515.828C3963.96 508.562 3964.55 500.74 3970 496.777C3970.14 496.673 3970.28 496.604 3970.42 496.499L4007.05 475.432L4031.53 435.384C4031.67 435.141 4031.88 434.897 4032.06 434.654C4048.38 416.75 4076.23 415.429 4094.18 431.699C4110.6 446.161 4123.59 463.647 4132.72 483.602C4138.35 498.029 4139.04 516.106 4124.39 524.241L4116.19 529.108L4173.07 593.248C4173.84 594.117 4174.25 595.229 4174.25 596.377V598.115C4174.25 600.514 4172.48 602.495 4170.09 602.773L4111.19 609.518C4113.52 621.198 4119.25 631.94 4127.9 640.527C4139.32 651.86 4154.56 658.187 4170.61 658.014C4186.72 657.944 4201.83 651.582 4213.15 640.145C4224.47 628.707 4230.68 613.515 4230.61 597.385C4230.54 581.254 4224.19 566.132 4212.76 554.799C4201.41 543.535 4186.34 537.312 4170.36 537.312C4170.26 537.312 4170.16 537.312 4170.02 537.312C4159.11 537.312 4148.38 540.233 4139.01 545.76C4136.79 547.081 4133.9 546.351 4132.58 544.091C4131.26 541.866 4131.99 538.981 4134.25 537.66C4145.08 531.263 4157.41 527.891 4169.98 527.891C4170.12 527.891 4170.23 527.891 4170.36 527.891C4188.8 527.891 4206.2 535.053 4219.36 548.089C4232.59 561.195 4239.92 578.682 4239.99 597.315C4240.09 615.949 4232.9 633.47 4219.81 646.715C4212.21 654.398 4203.18 660.065 4193.25 663.506H4261.59C4262.28 663.506 4262.94 663.645 4263.53 663.923C4264.12 663.645 4264.78 663.506 4265.48 663.506H4277C4277.98 663.506 4278.85 663.784 4279.61 664.306C4280.34 663.819 4281.24 663.506 4282.21 663.506H4287.63C4290.23 663.506 4292.32 665.592 4292.32 668.199C4292.32 670.807 4290.23 672.893 4287.63 672.893L4287.67 672.962ZM3979.93 663.576H4147.41C4137.72 660.204 4128.83 654.676 4121.33 647.237C4111.16 637.155 4104.46 624.466 4101.89 610.63L4081.16 612.994L4081.3 615.149C4081.61 617.305 4081.3 621.129 4076.89 624.64C4070.81 629.403 4059.42 631.454 4053.45 628.812C4050.42 627.491 4048.58 625.022 4048.34 621.998L4043.34 588.381L3995.46 520.556L3988.93 535.852C4020.94 552.435 4035.32 591.301 4020.98 625.057C4013.03 643.795 3997.78 657.249 3979.93 663.541V663.576ZM4057.65 620.92V620.99C4057.65 620.99 4057.65 620.955 4057.65 620.92ZM4057.58 620.399C4059 620.816 4062.72 620.851 4066.85 619.425C4070.29 618.243 4071.85 616.783 4072.02 616.262L4068.03 549.758C4067.93 548.02 4068.79 546.351 4070.32 545.447L4098.97 528.482C4099.77 527.266 4101.09 526.466 4102.55 526.362L4119.74 516.176C4131.92 509.397 4125.5 490.937 4124.08 487.322C4115.57 468.827 4103.38 452.384 4087.89 438.756C4073.83 426.032 4052.13 426.971 4039.24 440.738L4014.38 481.412C4013.96 482.072 4013.41 482.628 4012.71 483.046L3975.35 504.565C3974.2 505.607 3975 508.597 3976.43 510.857C3977.95 513.256 3981.08 516.106 3983.37 514.855L4022.78 492.189L4049.73 463.751C4051.5 461.874 4054.42 461.805 4056.33 463.543L4085.71 490.763C4086.4 491.424 4086.89 492.258 4087.09 493.197L4088.48 499.524C4088.48 499.524 4088.48 499.558 4088.48 499.593L4088.59 500.184C4088.93 501.992 4088.24 503.834 4086.75 504.912L4052.2 529.838C4051.95 530.012 4051.71 530.151 4051.43 530.29C4046.71 532.515 4044.35 537.938 4045.95 542.944C4046.01 543.188 4046.08 543.431 4046.12 543.709L4057.54 620.468L4057.58 620.399ZM4106.68 534.844L4086.4 602.982L4100.81 601.313C4100.74 600.235 4100.71 599.123 4100.71 598.011C4100.6 579.481 4107.93 561.682 4120.92 548.576L4108 534.01L4106.64 534.809L4106.68 534.844ZM4127.17 555.633C4116.19 566.931 4110.01 582.158 4110.08 597.976C4110.08 598.741 4110.08 599.505 4110.15 600.235L4161.51 594.36L4127.17 555.633ZM4077.58 552.087L4079.94 591.823L4094.8 541.901L4077.58 552.122V552.087ZM4003.23 515.376L4040.29 567.835L4036.95 545.378C4034.17 536.165 4038.48 526.223 4047.06 521.947L4048.9 520.626L4003.23 515.411V515.376ZM4015.28 507.311L4060.22 512.456L4078.8 499.072L4078.27 496.604L4053.38 473.555L4029.14 499.141C4028.83 499.489 4028.48 499.767 4028.06 499.976L4015.28 507.311ZM4181.23 484.784H4156.58C4153.97 484.784 4151.89 482.698 4151.89 480.091C4151.89 477.483 4153.97 475.397 4156.58 475.397H4181.23C4183.84 475.397 4185.92 477.483 4185.92 480.091C4185.92 482.698 4183.84 484.784 4181.23 484.784ZM4220.3 465.385H4214.78C4212.66 465.385 4210.85 463.96 4210.3 462.048C4209.71 463.995 4207.94 465.385 4205.82 465.385H4195.23C4193.56 465.385 4192.07 464.516 4191.27 463.195C4190.44 464.516 4188.98 465.385 4187.31 465.385H4146.2C4143.59 465.385 4141.51 463.3 4141.51 460.692C4141.51 458.085 4143.59 455.999 4146.2 455.999H4187.31C4188.98 455.999 4190.47 456.868 4191.27 458.189C4192.1 456.868 4193.56 455.999 4195.23 455.999H4205.82C4207.94 455.999 4209.74 457.424 4210.3 459.336C4210.89 457.39 4212.66 455.999 4214.78 455.999H4220.3C4222.9 455.999 4224.99 458.085 4224.99 460.692C4224.99 463.3 4222.9 465.385 4220.3 465.385ZM4185.61 442.337H4177.66C4175.71 442.337 4174.05 441.155 4173.35 439.451C4172.62 441.12 4170.99 442.337 4169.05 442.337H4128.38C4125.78 442.337 4123.69 440.251 4123.69 437.644C4123.69 435.036 4125.78 432.95 4128.38 432.95H4169.05C4170.99 432.95 4172.66 434.132 4173.35 435.836C4174.08 434.167 4175.71 432.95 4177.66 432.95H4185.61C4188.21 432.95 4190.3 435.036 4190.3 437.644C4190.3 440.251 4188.21 442.337 4185.61 442.337ZM4033.17 425.754C4025.04 425.754 4017.09 421.756 4012.37 414.491C4007.64 406.599 4004.21 398.221 4002.05 389.426C4001.88 389.078 4001.74 388.696 4001.67 388.313C4000.98 384.837 4000.98 381.291 4001.67 377.814C4003.27 370.653 4009.69 363.909 4018.79 359.668C4028.1 355.357 4038.2 354.592 4045.95 357.443C4051.47 353.514 4058.97 349.551 4067.06 351.463C4073.93 353.062 4079.77 358.729 4084.42 368.289L4086.19 371.939C4095.15 390.434 4096.68 392.833 4103.8 393.702C4105.5 393.91 4106.96 395.023 4107.62 396.622C4108.28 398.221 4107.96 400.029 4106.85 401.35C4105.08 403.505 4099.63 410.006 4091.16 409.206C4081.89 408.303 4072.51 398.986 4061.78 380.039C4063.17 386.749 4063.62 393.597 4063.13 400.515C4063.13 400.828 4063.06 401.141 4062.96 401.419C4060.36 410.806 4053.83 418.558 4045.01 422.695C4041.26 424.781 4037.16 425.754 4033.13 425.754H4033.17ZM4012.64 392.415C4014.52 398.395 4017.12 404.096 4020.32 409.519C4024.62 416.159 4033.58 418.349 4040.6 414.421C4040.7 414.352 4040.81 414.317 4040.91 414.247C4047.16 411.362 4051.81 405.939 4053.79 399.368C4054.38 390.538 4053.17 381.847 4050.22 373.504C4049.63 371.974 4048.72 370.549 4047.54 369.262C4046.67 368.359 4045.7 367.629 4044.59 367.072C4044.49 367.038 4044.38 366.968 4044.28 366.933C4038.72 364.152 4030.35 364.674 4022.71 368.185C4017.64 370.514 4013.76 373.782 4011.88 377.119C4014.52 384.976 4016.95 386.992 4035.74 381.152C4038.2 380.387 4040.84 381.778 4041.6 384.246C4042.37 386.714 4040.98 389.356 4038.51 390.121C4028.03 393.389 4019.24 395.509 4012.61 392.45L4012.64 392.415ZM4057.37 361.614C4063.48 363.457 4066.71 369.506 4068 371.87C4080.7 395.37 4088.55 399.473 4092.09 399.82C4092.44 399.855 4092.82 399.855 4093.21 399.82C4087.48 396.066 4083.97 388.765 4077.79 375.972L4076.02 372.322C4072.68 365.438 4068.93 361.475 4064.94 360.537C4062.75 360.015 4060.25 360.363 4057.37 361.58V361.614Z" fill="#182443" stroke="#182443" stroke-width="2" mask="url(#path-13-inside-2_89_2)"/>
</g>
<path d="M3816.45 905.812C4040.37 905.812 4221.9 724.082 4221.9 499.906C4221.9 275.73 4040.37 94 3816.45 94C3592.53 94 3411 275.73 3411 499.906C3411 724.082 3592.53 905.812 3816.45 905.812Z" stroke="#182443" stroke-width="16" stroke-miterlimit="10"/>
<path d="M338 590.704V232.342H452.298V494.686H642.19V590.704H338Z" fill="#182443"/>
<path d="M943.758 590.704L924.693 532.034H803.341L783.227 590.704H667.309L810.443 232.342H920.927L1059.68 590.704H943.758ZM899.145 445.222L865.399 346.295L830.557 445.222H899.097H899.145Z" fill="#182443"/>
<path d="M1069.26 537.853L1123.69 462.68C1161.25 490.345 1200.95 504.369 1241.75 504.369C1267.35 504.369 1280.41 498.073 1280.41 485.48C1280.41 477.228 1270.06 469.453 1249.95 463.157C1245.04 461.726 1236.89 459.293 1224.93 456.384C1201.52 450.087 1179.74 443.791 1162.34 436.016C1117.16 416.126 1094.85 384.597 1094.85 341.43C1094.85 308.47 1109.53 281.281 1138.94 259.483C1168.35 237.637 1205.86 227 1251.57 227C1307.1 227 1356.57 241.548 1400.66 270.645L1350.62 348.728C1338.65 340.953 1322.88 334.656 1303.81 329.314C1284.74 323.972 1267.92 321.062 1253.19 321.062C1227.6 321.062 1215.63 328.837 1215.63 338.52C1215.63 350.158 1227.6 355.024 1247.19 360.366C1287.99 371.528 1313.58 379.303 1324.45 383.166C1378.88 402.103 1406.05 434.585 1406.05 479.661C1406.05 513.622 1390.8 541.717 1360.86 564.04C1330.93 585.886 1290.65 597 1240.04 597C1172.02 597 1115.44 577.11 1069.16 537.853H1069.26Z" fill="#182443"/>
<path d="M1533.98 329.314H1424.07V232.342H1757.62V329.314H1648.23V590.704H1533.93V329.314H1533.98Z" fill="#182443"/>
<path d="M1898.61 590.704V232.342H1985.69L2123.34 405.966L2260.47 232.342H2348.65V590.704H2236.54V435.539L2145.12 547.584H2101.03L2009.61 435.539V590.704H1898.61Z" fill="#182443"/>
<path d="M2400.89 232.342H2515.14V590.704H2400.89V232.342Z" fill="#182443"/>
<path d="M2557.89 590.704V232.342H2672.14V494.686H2862.03V590.704H2557.84H2557.89Z" fill="#182443"/>
<path d="M2903.64 590.704V232.342H3204.54V325.45H3017.89V365.231H3190.39V457.862H3017.89V497.643H3203.45V590.751H2903.6L2903.64 590.704Z" fill="#182443"/>
<path d="M1299.94 713.039C1299.94 694.197 1292.06 682.725 1273.69 682.725H1210.83V663.104H1278.05C1296.88 663.104 1309.38 670.994 1316.23 682.985C1320.06 690.148 1322.35 699.024 1322.35 712.52V795.312H1299.94V712.987V713.039ZM1210.83 725.237H1233.24V795.312H1210.83V725.237Z" fill="#182443"/>
<path d="M1425.51 713.039C1425.51 694.197 1417.89 682.725 1399.27 682.725H1351.65V663.104H1403.57C1422.4 663.104 1434.9 670.994 1441.75 682.985C1445.59 690.148 1447.61 699.024 1447.61 712.52V795.312H1425.46V712.987L1425.51 713.039Z" fill="#182443"/>
<path d="M1496.52 682.725H1480.75V663.104H1519.19V795.364H1496.52V682.725Z" fill="#182443"/>
<path d="M1554.88 775.691H1625.42V712.987C1625.42 694.145 1617.79 682.673 1599.17 682.673H1556.12V663.052H1603.48C1623.86 663.052 1636.83 671.98 1643.21 685.995C1646.01 692.639 1647.77 700.27 1647.77 712.468V775.639H1668.68V795.26H1554.88V775.639V775.691Z" fill="#182443"/>
<path d="M1699.23 663.104H1769.51C1788.08 663.104 1800.84 670.994 1807.43 682.985C1811.52 690.148 1813.81 699.024 1813.81 712.52V795.312H1791.4V712.987C1791.4 694.145 1783.51 682.673 1765.15 682.673H1721.63V795.312H1699.23V663.052V663.104Z" fill="#182443"/>
<path d="M1846.9 794.586V776.003C1850.22 776.781 1853.54 777.508 1858.62 777.508C1869.56 777.508 1877.45 773.926 1877.45 756.122V682.725H1846.9V663.104H1942.65C1962.25 663.104 1974.96 671.773 1981.08 682.985C1984.92 689.889 1986.94 699.024 1986.94 712.261V795.312H1964.54V712.987C1964.54 694.145 1957.17 682.674 1938.55 682.674H1899.6V758.095C1899.6 789.706 1882.01 796.818 1862.41 796.818C1858.57 796.818 1852.71 796.558 1846.9 794.534V794.586Z" fill="#182443"/>
<path d="M2037.1 682.725H2021.33V663.104H2059.77V795.364H2037.1V682.725Z" fill="#182443"/>
<path d="M2160.34 663.104H2231.14C2249.71 663.104 2262.47 670.994 2269.06 682.985C2273.16 690.148 2275.44 699.024 2275.44 712.52V795.312H2160.34V663.052V663.104ZM2253.03 775.691V712.987C2253.03 694.145 2245.41 682.673 2226.79 682.673H2182.75V775.691H2253.03Z" fill="#182443"/>
<path d="M2325.13 682.725H2309.36V663.104H2347.8V747.713H2325.13V682.725Z" fill="#182443"/>
<path d="M2451.64 713.039C2451.64 694.197 2444.01 682.725 2425.39 682.725H2377.78V663.104H2429.7C2448.53 663.104 2461.03 670.994 2467.87 682.985C2471.71 690.148 2473.74 699.024 2473.74 712.52V795.312H2451.59V712.987L2451.64 713.039Z" fill="#182443"/>
<path d="M2508.44 775.691H2529.81C2537.69 775.691 2544.59 775.691 2550.45 775.431L2505.63 663.052H2530.07L2572.86 771.33C2584.84 766.503 2590.44 755.551 2594.23 731.829C2597.29 712.468 2598.32 689.265 2598.32 672.966V663H2620.99C2620.99 673.952 2620.73 686.462 2620.21 698.401C2619.44 715.219 2617.93 729.753 2615.65 740.705C2606.47 784.515 2583.59 795.208 2535.2 795.208H2508.49V775.587L2508.44 775.691Z" fill="#182443"/>
<path d="M2724.63 682.725H2706.32V663.104H2747.29V829H2724.63V682.725Z" fill="#182443"/>
<path d="M2798.75 682.725H2782.98V663.104H2821.41V795.364H2798.75V682.725Z" fill="#182443"/>
<path d="M2855.75 777.249H2874.32C2887.03 777.249 2892.63 770.345 2892.63 758.406V682.725H2860.06V663.104H2914.78V754.825C2914.78 767.542 2912.24 777.768 2906.89 784.879C2900.77 792.769 2891.13 796.87 2877.38 796.87H2855.75V777.249Z" fill="#182443"/>
<path d="M2947.92 775.95H2974.17C3008.56 775.95 3024.84 760.638 3024.84 727.781C3024.84 697.726 3011.1 681.946 2983.61 682.154L2949.22 682.414V663.052H2988.43C3026.09 663.052 3046.47 684.438 3046.47 727.002C3046.47 773.095 3022.3 795.312 2974.17 795.312H2947.92V775.95Z" fill="#182443"/>
<path d="M3069.4 794.586V776.003C3072.72 776.781 3076.04 777.508 3081.12 777.508C3092.07 777.508 3099.95 773.926 3099.95 756.122V682.725H3069.4V663.104H3165.15C3184.76 663.104 3197.46 671.773 3203.58 682.985C3207.42 689.889 3209.45 699.024 3209.45 712.261V795.312H3187.04V712.987C3187.04 694.145 3179.67 682.674 3161.05 682.674H3122.1V758.095C3122.1 789.706 3104.51 796.818 3084.91 796.818C3081.07 796.818 3075.21 796.558 3069.4 794.534V794.586Z" fill="#182443"/>
</svg>
